<svg width="22" height="22" viewBox="0 0 22 22" fill="none" xmlns="http://www.w3.org/2000/svg">
<path fill-rule="evenodd" clip-rule="evenodd" d="M11 0.649963C11.4142 0.649963 11.75 0.98575 11.75 1.39996V10.25H20.6C21.0142 10.25 21.35 10.5858 21.35 11C21.35 11.4142 21.0142 11.75 20.6 11.75H11.75V20.6C11.75 21.0142 11.4142 21.35 11 21.35C10.5858 21.35 10.25 21.0142 10.25 20.6V11.75H1.40002C0.985811 11.75 0.650024 11.4142 0.650024 11C0.650024 10.5858 0.985811 10.25 1.40002 10.25H10.25V1.39996C10.25 0.98575 10.5858 0.649963 11 0.649963Z" fill="#F8FAFC"/>
</svg>
